<?xml version="1.0" encoding="UTF-8"?>
<svg id="Layer_1" xmlns="http://www.w3.org/2000/svg" version="1.1" viewBox="0 0 1600 980">
  <!-- Generator: Adobe Illustrator 30.3.0, SVG Export Plug-In . SVG Version: 2.1.3 Build 182)  -->
  <defs>
    <style>
      .st0 {
        fill: #66788f;
      }

      .st0, .st1, .st2, .st3, .st4 {
        font-family: ArialMT, Arial;
        font-size: 12px;
        isolation: isolate;
      }

      .st5 {
        stroke: #183153;
        stroke-width: 6px;
      }

      .st5, .st6, .st7 {
        fill: #fffdf9;
      }

      .st1 {
        fill: #16324f;
      }

      .st2 {
        fill: #4d6078;
      }

      .st8 {
        stroke: #e05a47;
      }

      .st8, .st9, .st10 {
        fill: none;
        stroke-linecap: round;
        stroke-linejoin: round;
        stroke-width: 18px;
      }

      .st11 {
        fill: #d59b00;
      }

      .st3 {
        fill: #51657d;
      }

      .st9 {
        stroke: #d59b00;
      }

      .st10 {
        stroke: #0b7fab;
      }

      .st7 {
        stroke: #eadfcf;
        stroke-width: 2px;
      }

      .st12 {
        fill: #e05a47;
      }

      .st13 {
        fill: #0b7fab;
      }

      .st4 {
        fill: #183153;
      }
    </style>
  </defs>
  <text class="st4" transform="translate(33 38)"><tspan x="0" y="0">CoCnT / CUT&amp;Tag Preprocessing Pipeline</tspan></text>
  <text class="st2" transform="translate(34 71)"><tspan x="0" y="0">Metro-map view of the Nextflow workflow, sample filtering, optional barcode rewriting, alignment, and signal-track generation</tspan></text>
  <path class="st10" d="M170,290h300c33.33,0,50,16.67,50,50v80h590c36.67,0,55,18.33,55,55v205h225"/>
  <path class="st8" d="M520,210v210"/>
  <path class="st9" d="M780,780h385v-100"/>
  <circle class="st5" cx="170" cy="290" r="20"/>
  <circle class="st5" cx="350" cy="290" r="20"/>
  <circle class="st5" cx="520" cy="210" r="20"/>
  <circle class="st5" cx="520" cy="420" r="20"/>
  <circle class="st5" cx="710" cy="420" r="20"/>
  <circle class="st5" cx="900" cy="420" r="20"/>
  <circle class="st5" cx="1080" cy="420" r="20"/>
  <circle class="st5" cx="1165" cy="520" r="20"/>
  <circle class="st5" cx="1165" cy="680" r="20"/>
  <circle class="st5" cx="1390" cy="680" r="20"/>
  <circle class="st5" cx="780" cy="780" r="20"/>
  <rect class="st6" x="112" y="210" width="140" height="52" rx="16" ry="16"/>
  <text class="st1" transform="translate(122 231)"><tspan x="0" y="0">Input FASTQ</tspan></text>
  <text class="st3" transform="translate(122 251)"><tspan x="0" y="0">Paired files</tspan></text>
  <text class="st0" transform="translate(122 269)"><tspan x="0" y="0">`*_R1.fq.gz`, `*_R2.fq.gz`</tspan></text>
  <rect class="st6" x="278" y="208" width="145" height="70" rx="16" ry="16"/>
  <text class="st1" transform="translate(292 229)"><tspan x="0" y="0">Sample Filter</tspan></text>
  <text class="st3" transform="translate(292 249)"><tspan x="0" y="0">Optional filename exclusion</tspan></text>
  <text class="st0" transform="translate(292 267)"><tspan x="0" y="0">`enable_sample_filter`, `skip_patterns`</tspan></text>
  <text class="st1" transform="translate(570 156)"><tspan x="0" y="0">Barcode Rewrite</tspan></text>
  <text class="st3" transform="translate(570 178)"><tspan x="0" y="0">Optional Well-ID reassignment</tspan></text>
  <text class="st0" transform="translate(570 198)"><tspan x="0" y="0">C++ fast path, Python fallback</tspan></text>
  <text class="st0" transform="translate(570 214)"><tspan x="0" y="0">`barcode_matrix`, `barcode_suffix`</tspan></text>
  <rect class="st6" x="558" y="448" width="220" height="88" rx="16" ry="16"/>
  <text class="st1" transform="translate(574 474)"><tspan x="0" y="0">Cutadapt Trim</tspan></text>
  <text class="st3" transform="translate(574 496)"><tspan x="0" y="0">Minimum read length: 20 bp</tspan></text>
  <text class="st0" transform="translate(574 516)"><tspan x="0" y="0">Adapter: `CTGTCTCTTATACACATCT`</tspan></text>
  <text class="st0" transform="translate(574 532)"><tspan x="0" y="0">Default: 8 CPUs</tspan></text>
  <rect class="st6" x="806" y="448" width="188" height="88" rx="16" ry="16"/>
  <text class="st1" transform="translate(822 474)"><tspan x="0" y="0">Bowtie2 Align</tspan></text>
  <text class="st3" transform="translate(822 496)"><tspan x="0" y="0">Very-sensitive local PE mode</tspan></text>
  <text class="st0" transform="translate(822 516)"><tspan x="0" y="0">`ref`, `-I 10`, `-X 1000`</tspan></text>
  <text class="st0" transform="translate(822 532)"><tspan x="0" y="0">Default: 16 CPUs, 256 GB</tspan></text>
  <rect class="st6" x="1004" y="448" width="150" height="70" rx="16" ry="16"/>
  <text class="st1" transform="translate(1021 474)"><tspan x="0" y="0">SAM to BAM</tspan></text>
  <text class="st3" transform="translate(1021 496)"><tspan x="0" y="0">Samtools view</tspan></text>
  <rect class="st6" x="1194" y="538" width="196" height="78" rx="16" ry="16"/>
  <text class="st1" transform="translate(1210 564)"><tspan x="0" y="0">BED Fragments</tspan></text>
  <text class="st3" transform="translate(1210 586)"><tspan x="0" y="0">BEDPE to fragment BED</tspan></text>
  <text class="st0" transform="translate(1210 604)"><tspan x="0" y="0">Sort, collapse, barcode-aware IDs</tspan></text>
  <rect class="st6" x="1210" y="706" width="190" height="72" rx="16" ry="16"/>
  <text class="st1" transform="translate(1226 732)"><tspan x="0" y="0">BigWig Signal</tspan></text>
  <text class="st3" transform="translate(1226 754)"><tspan x="0" y="0">Scaled coverage track</tspan></text>
  <text class="st0" transform="translate(1226 772)"><tspan x="0" y="0">`chrom_sizes`, bedGraphToBigWig</tspan></text>
  <rect class="st6" x="606" y="806" width="332" height="92" rx="16" ry="16"/>
  <text class="st1" transform="translate(624 832)"><tspan x="0" y="0">Coverage Normalization</tspan></text>
  <text class="st3" transform="translate(624 854)"><tspan x="0" y="0">Scale factor = (1 / total fragment coverage) × 10^10</tspan></text>
  <text class="st0" transform="translate(624 874)"><tspan x="0" y="0">BED → BedGraph with `bedtools genomecov -bg -scale`</tspan></text>
  <text class="st0" transform="translate(129 322)"><tspan x="0" y="0">Discovery</tspan></text>
  <text class="st0" transform="translate(322 322)"><tspan x="0" y="0">User-configurable</tspan></text>
  <text class="st0" transform="translate(543 252)"><tspan x="0" y="0">Optional branch</tspan></text>
  <text class="st0" transform="translate(559 403)"><tspan x="0" y="0">Merge</tspan></text>
  <text class="st0" transform="translate(692 454)"><tspan x="0" y="0">Cleaning</tspan></text>
  <text class="st0" transform="translate(878 454)"><tspan x="0" y="0">Mapping</tspan></text>
  <text class="st0" transform="translate(1049 402)"><tspan x="0" y="0">Conversion</tspan></text>
  <text class="st0" transform="translate(1189 501)"><tspan x="0" y="0">Fragment table</tspan></text>
  <text class="st0" transform="translate(1118 742)"><tspan x="0" y="0">Scaled signal</tspan></text>
  <text class="st0" transform="translate(795 764)"><tspan x="0" y="0">Normalization side branch</tspan></text>
  <rect class="st7" x="116" y="834" width="354" height="58" rx="18" ry="18"/>
  <circle class="st13" cx="146" cy="863" r="9"/>
  <text class="st3" transform="translate(164 869)"><tspan x="0" y="0">Main workflow</tspan></text>
  <circle class="st12" cx="276" cy="863" r="9"/>
  <text class="st3" transform="translate(294 869)"><tspan x="0" y="0">Optional barcode rewrite</tspan></text>
  <circle class="st11" cx="448" cy="863" r="9"/>
  <text class="st3" transform="translate(466 869)"><tspan x="0" y="0">Normalization</tspan></text>
  <rect class="st7" x="1232" y="117.33" width="322" height="156" rx="20" ry="20"/>
  <text class="st4" transform="translate(1254 147.33)"><tspan x="0" y="0">Key Parameters</tspan></text>
  <text class="st3" transform="translate(1254 175.33)"><tspan x="0" y="0">`input_dir`, `out_dir`</tspan></text>
  <text class="st3" transform="translate(1254 199.33)"><tspan x="0" y="0">`enable_sample_filter`, `skip_patterns`</tspan></text>
  <text class="st3" transform="translate(1254 223.33)"><tspan x="0" y="0">`barcode_matrix`, `barcode_suffix`</tspan></text>
  <text class="st3" transform="translate(1254 247.33)"><tspan x="0" y="0">`skip_barcode_rewrite`</tspan></text>
  <text class="st3" transform="translate(1254 271.33)"><tspan x="0" y="0">`adapter_seq`, `ref`, `chrom_sizes`</tspan></text>
  <rect class="st7" x="1232" y="283.33" width="322" height="120" rx="20" ry="20"/>
  <text class="st4" transform="translate(1254 313.33)"><tspan x="0" y="0">Published Outputs</tspan></text>
  <text class="st3" transform="translate(1254 341.33)"><tspan x="0" y="0">Rewritten FASTQ</tspan></text>
  <text class="st3" transform="translate(1140 436)"><tspan x="0" y="0">Trimmed FASTQ, SAM, BAM</tspan></text>
  <text class="st3" transform="translate(1140 460)"><tspan x="0" y="0">Compressed BED, BigWig</tspan></text>
</svg>